<?xml version="1.0" encoding="UTF-8"?>
<svg id="sg-logo_copia" data-name="sg-logo copia" xmlns="http://www.w3.org/2000/svg" viewBox="0 0 61.35 78.29">
	<path d="m5.38,36.95c1.26-5.87,3.21-10.15,10.1-10.15h30.3c7.02,0,9.22,4.28,10.1,10.15l4.39,30.38c.72,5.11-3.23,9.96-10.41,9.96H10.73c-5.77,0-10.13-4.85-9.7-9.96l4.35-30.38Z" style="fill: #95c11f; stroke: #95c11f; stroke-miterlimit: 10; stroke-width: 2px;" />
	<g>
		<path d="m24.16,52.33c-.89-1.14-2.03-1.86-3.58-1.86s-2.92,1.08-2.92,2.55c0,3.81,9.48,2.22,9.48,9.81,0,4.53-2.98,7.74-7.87,7.74-3.3,0-5.71-1.8-7.36-4.41l3.01-2.79c.63,1.74,2.32,3.3,4.31,3.3s3.08-1.53,3.08-3.27c0-2.34-2.28-3-4.16-3.69-3.08-1.2-5.33-2.67-5.33-6.18,0-3.75,2.95-6.78,6.98-6.78,2.13,0,5.08.99,6.53,2.52l-2.19,3.06Z" style="fill: #fff; stroke: #fff; stroke-miterlimit: 10;" />
		<path d="m48.93,57.94v.57c0,6.39-3.24,12.06-10.2,12.06-6.54,0-10.68-5.58-10.68-11.82s4.25-12,10.95-12c3.81,0,7.14,1.95,8.86,5.4l-3.87,2.1c-.89-2.04-2.8-3.6-5.12-3.6-4.22,0-6.31,4.35-6.31,8.1s2.11,7.92,6.34,7.92c2.74,0,5.03-2.4,5.12-5.13h-4.76v-3.6h9.67Z" style="fill: #fff; stroke: #fff; stroke-miterlimit: 10;" />
	</g>
	<path d="m30.67.5c-8.37,0-15.15,6.78-15.15,15.15-.01.69.39,3.55.96,5.31,2.47,7.07,9.21,14.63,14.19,21.85,6.39-6.95,12.83-15.8,14.64-23.28.33-1.24.5-2.54.5-3.88,0-8.37-6.78-15.15-15.15-15.15Zm-.04,19.34c-4.23,0-7.67-3.43-7.67-7.67s3.43-7.67,7.67-7.67,7.67,3.43,7.67,7.67-3.43,7.67-7.67,7.67Z" style="fill: #e30613; stroke: #e30613; stroke-miterlimit: 10;" />
</svg>
